solid OpenSCAD_Model
  facet normal -0.57735 0.57735 0.57735
    outer loop
      vertex -2.03581 2.03581 -2.03581
      vertex -2.03581 -2.03581 2.03581
      vertex 2.03581 2.03581 2.03581
    endloop
  endfacet
  facet normal 0.57735 -0.57735 0.57735
    outer loop
      vertex 2.03581 2.03581 2.03581
      vertex -2.03581 -2.03581 2.03581
      vertex 2.03581 -2.03581 -2.03581
    endloop
  endfacet
  facet normal -0.57735 -0.57735 -0.57735
    outer loop
      vertex 2.03581 -2.03581 -2.03581
      vertex -2.03581 -2.03581 2.03581
      vertex -2.03581 2.03581 -2.03581
    endloop
  endfacet
  facet normal 0.57735 0.57735 -0.57735
    outer loop
      vertex 2.03581 -2.03581 -2.03581
      vertex -2.03581 2.03581 -2.03581
      vertex 2.03581 2.03581 2.03581
    endloop
  endfacet
endsolid OpenSCAD_Model
