solid OpenSCAD_Model
  facet normal 0.934172 -0.356822 0
    outer loop
      vertex 4.14031 -6.69916 0
      vertex 6.69916 0 -4.14031
      vertex 6.69916 0 4.14031
    endloop
  endfacet
  facet normal 0.57735 -0.57735 0.57735
    outer loop
      vertex 0 -4.14031 6.69916
      vertex 4.14031 -6.69916 0
      vertex 6.69916 0 4.14031
    endloop
  endfacet
  facet normal 0.356822 0 0.934172
    outer loop
      vertex 0 -4.14031 6.69916
      vertex 6.69916 0 4.14031
      vertex 0 4.14031 6.69916
    endloop
  endfacet
  facet normal 0.57735 0.57735 0.57735
    outer loop
      vertex 0 4.14031 6.69916
      vertex 6.69916 0 4.14031
      vertex 4.14031 6.69916 0
    endloop
  endfacet
  facet normal 0.934172 0.356822 0
    outer loop
      vertex 4.14031 6.69916 0
      vertex 6.69916 0 4.14031
      vertex 6.69916 0 -4.14031
    endloop
  endfacet
  facet normal -0 -0.934172 -0.356822
    outer loop
      vertex -4.14031 -6.69916 0
      vertex 0 -4.14031 -6.69916
      vertex 4.14031 -6.69916 0
    endloop
  endfacet
  facet normal 0 -0.934172 0.356822
    outer loop
      vertex -4.14031 -6.69916 0
      vertex 4.14031 -6.69916 0
      vertex 0 -4.14031 6.69916
    endloop
  endfacet
  facet normal 0.57735 -0.57735 -0.57735
    outer loop
      vertex 0 -4.14031 -6.69916
      vertex 6.69916 0 -4.14031
      vertex 4.14031 -6.69916 0
    endloop
  endfacet
  facet normal 0.356822 0 -0.934172
    outer loop
      vertex 0 -4.14031 -6.69916
      vertex 0 4.14031 -6.69916
      vertex 6.69916 0 -4.14031
    endloop
  endfacet
  facet normal 0.57735 0.57735 -0.57735
    outer loop
      vertex 0 4.14031 -6.69916
      vertex 4.14031 6.69916 0
      vertex 6.69916 0 -4.14031
    endloop
  endfacet
  facet normal -0.356822 0 0.934172
    outer loop
      vertex -6.69916 0 4.14031
      vertex 0 -4.14031 6.69916
      vertex 0 4.14031 6.69916
    endloop
  endfacet
  facet normal -0.57735 -0.57735 0.57735
    outer loop
      vertex -6.69916 0 4.14031
      vertex -4.14031 -6.69916 0
      vertex 0 -4.14031 6.69916
    endloop
  endfacet
  facet normal 0 0.934172 0.356822
    outer loop
      vertex -4.14031 6.69916 0
      vertex 0 4.14031 6.69916
      vertex 4.14031 6.69916 0
    endloop
  endfacet
  facet normal -0.57735 0.57735 0.57735
    outer loop
      vertex -6.69916 0 4.14031
      vertex 0 4.14031 6.69916
      vertex -4.14031 6.69916 0
    endloop
  endfacet
  facet normal 0 0.934172 -0.356822
    outer loop
      vertex -4.14031 6.69916 0
      vertex 4.14031 6.69916 0
      vertex 0 4.14031 -6.69916
    endloop
  endfacet
  facet normal -0.57735 -0.57735 -0.57735
    outer loop
      vertex -6.69916 0 -4.14031
      vertex 0 -4.14031 -6.69916
      vertex -4.14031 -6.69916 0
    endloop
  endfacet
  facet normal -0.934172 -0.356822 -0
    outer loop
      vertex -6.69916 0 -4.14031
      vertex -4.14031 -6.69916 0
      vertex -6.69916 0 4.14031
    endloop
  endfacet
  facet normal -0.356822 0 -0.934172
    outer loop
      vertex -6.69916 0 -4.14031
      vertex 0 4.14031 -6.69916
      vertex 0 -4.14031 -6.69916
    endloop
  endfacet
  facet normal -0.57735 0.57735 -0.57735
    outer loop
      vertex -6.69916 0 -4.14031
      vertex -4.14031 6.69916 0
      vertex 0 4.14031 -6.69916
    endloop
  endfacet
  facet normal -0.934172 0.356822 0
    outer loop
      vertex -6.69916 0 -4.14031
      vertex -6.69916 0 4.14031
      vertex -4.14031 6.69916 0
    endloop
  endfacet
endsolid OpenSCAD_Model
