solid OpenSCAD_Model
  facet normal 0.934172 -0.356822 0
    outer loop
      vertex 1.34833 -2.18165 0
      vertex 2.18165 0 -1.34833
      vertex 2.18165 0 1.34833
    endloop
  endfacet
  facet normal 0.57735 -0.57735 0.57735
    outer loop
      vertex 0 -1.34833 2.18165
      vertex 1.34833 -2.18165 0
      vertex 2.18165 0 1.34833
    endloop
  endfacet
  facet normal 0.356822 0 0.934172
    outer loop
      vertex 0 -1.34833 2.18165
      vertex 2.18165 0 1.34833
      vertex 0 1.34833 2.18165
    endloop
  endfacet
  facet normal 0.57735 0.57735 0.57735
    outer loop
      vertex 0 1.34833 2.18165
      vertex 2.18165 0 1.34833
      vertex 1.34833 2.18165 0
    endloop
  endfacet
  facet normal 0.934172 0.356822 0
    outer loop
      vertex 1.34833 2.18165 0
      vertex 2.18165 0 1.34833
      vertex 2.18165 0 -1.34833
    endloop
  endfacet
  facet normal -0 -0.934172 -0.356822
    outer loop
      vertex -1.34833 -2.18165 0
      vertex 0 -1.34833 -2.18165
      vertex 1.34833 -2.18165 0
    endloop
  endfacet
  facet normal 0 -0.934172 0.356822
    outer loop
      vertex -1.34833 -2.18165 0
      vertex 1.34833 -2.18165 0
      vertex 0 -1.34833 2.18165
    endloop
  endfacet
  facet normal 0.57735 -0.57735 -0.57735
    outer loop
      vertex 0 -1.34833 -2.18165
      vertex 2.18165 0 -1.34833
      vertex 1.34833 -2.18165 0
    endloop
  endfacet
  facet normal 0.356822 0 -0.934172
    outer loop
      vertex 0 -1.34833 -2.18165
      vertex 0 1.34833 -2.18165
      vertex 2.18165 0 -1.34833
    endloop
  endfacet
  facet normal 0.57735 0.57735 -0.57735
    outer loop
      vertex 0 1.34833 -2.18165
      vertex 1.34833 2.18165 0
      vertex 2.18165 0 -1.34833
    endloop
  endfacet
  facet normal -0.356822 0 0.934172
    outer loop
      vertex -2.18165 0 1.34833
      vertex 0 -1.34833 2.18165
      vertex 0 1.34833 2.18165
    endloop
  endfacet
  facet normal -0.57735 -0.57735 0.57735
    outer loop
      vertex -2.18165 0 1.34833
      vertex -1.34833 -2.18165 0
      vertex 0 -1.34833 2.18165
    endloop
  endfacet
  facet normal 0 0.934172 0.356822
    outer loop
      vertex -1.34833 2.18165 0
      vertex 0 1.34833 2.18165
      vertex 1.34833 2.18165 0
    endloop
  endfacet
  facet normal -0.57735 0.57735 0.57735
    outer loop
      vertex -2.18165 0 1.34833
      vertex 0 1.34833 2.18165
      vertex -1.34833 2.18165 0
    endloop
  endfacet
  facet normal 0 0.934172 -0.356822
    outer loop
      vertex -1.34833 2.18165 0
      vertex 1.34833 2.18165 0
      vertex 0 1.34833 -2.18165
    endloop
  endfacet
  facet normal -0.57735 -0.57735 -0.57735
    outer loop
      vertex -2.18165 0 -1.34833
      vertex 0 -1.34833 -2.18165
      vertex -1.34833 -2.18165 0
    endloop
  endfacet
  facet normal -0.934172 -0.356822 -0
    outer loop
      vertex -2.18165 0 -1.34833
      vertex -1.34833 -2.18165 0
      vertex -2.18165 0 1.34833
    endloop
  endfacet
  facet normal -0.356822 0 -0.934172
    outer loop
      vertex -2.18165 0 -1.34833
      vertex 0 1.34833 -2.18165
      vertex 0 -1.34833 -2.18165
    endloop
  endfacet
  facet normal -0.57735 0.57735 -0.57735
    outer loop
      vertex -2.18165 0 -1.34833
      vertex -1.34833 2.18165 0
      vertex 0 1.34833 -2.18165
    endloop
  endfacet
  facet normal -0.934172 0.356822 0
    outer loop
      vertex -2.18165 0 -1.34833
      vertex -2.18165 0 1.34833
      vertex -1.34833 2.18165 0
    endloop
  endfacet
endsolid OpenSCAD_Model
