solid OpenSCAD_Model
  facet normal 0.57735 -0.57735 -0.57735
    outer loop
      vertex 0 -2.56468 0
      vertex 0 0 -2.56468
      vertex 2.56468 0 0
    endloop
  endfacet
  facet normal 0.57735 -0.57735 0.57735
    outer loop
      vertex 0 -2.56468 0
      vertex 2.56468 0 0
      vertex 0 0 2.56468
    endloop
  endfacet
  facet normal 0.57735 0.57735 0.57735
    outer loop
      vertex 0 0 2.56468
      vertex 2.56468 0 0
      vertex 0 2.56468 0
    endloop
  endfacet
  facet normal 0.57735 0.57735 -0.57735
    outer loop
      vertex 0 0 -2.56468
      vertex 0 2.56468 0
      vertex 2.56468 0 0
    endloop
  endfacet
  facet normal -0.57735 -0.57735 -0.57735
    outer loop
      vertex -2.56468 0 0
      vertex 0 0 -2.56468
      vertex 0 -2.56468 0
    endloop
  endfacet
  facet normal -0.57735 -0.57735 0.57735
    outer loop
      vertex -2.56468 0 0
      vertex 0 -2.56468 0
      vertex 0 0 2.56468
    endloop
  endfacet
  facet normal -0.57735 0.57735 -0.57735
    outer loop
      vertex -2.56468 0 0
      vertex 0 2.56468 0
      vertex 0 0 -2.56468
    endloop
  endfacet
  facet normal -0.57735 0.57735 0.57735
    outer loop
      vertex -2.56468 0 0
      vertex 0 0 2.56468
      vertex 0 2.56468 0
    endloop
  endfacet
endsolid OpenSCAD_Model
